<svg width="12" height="9" viewBox="0 0 12 9" fill="none" xmlns="http://www.w3.org/2000/svg">
<path d="M1.78883 0.0826931L10.2088 0.0826931C10.5412 0.0822115 10.867 0.175879 11.1484 0.352852C11.4298 0.529825 11.6553 0.782868 11.7988 1.08269C11.9669 1.43843 12.0316 1.83423 11.9856 2.22496C11.9396 2.6157 11.7848 2.98566 11.5388 3.29269L7.32883 8.39269C7.16362 8.58332 6.95935 8.73621 6.72988 8.84099C6.50041 8.94577 6.25109 9 5.99883 9C5.74657 9 5.49726 8.94577 5.26778 8.84099C5.03831 8.73621 4.83405 8.58332 4.66883 8.39269L0.458831 3.29269C0.212825 2.98566 0.0580168 2.6157 0.0120478 2.22496C-0.0339212 1.83423 0.0307999 1.43843 0.198833 1.08269C0.342374 0.782868 0.567891 0.529825 0.849278 0.352852C1.13067 0.175879 1.45642 0.0822115 1.78883 0.0826931Z" fill="#323748"/>
</svg>
