<svg width="24" height="24" viewBox="0 0 24 24" fill="none" xmlns="http://www.w3.org/2000/svg">
<path d="M13 8L17 12M17 12L13 16M17 12L3 12M8 8V7C8 6.20435 8.31607 5.44129 8.87868 4.87868C9.44129 4.31607 10.2044 4 11 4H18C18.7956 4 19.5587 4.31607 20.1213 4.87868C20.6839 5.44129 21 6.20435 21 7V17C21 17.7956 20.6839 18.5587 20.1213 19.1213C19.5587 19.6839 18.7956 20 18 20H11C10.2044 20 9.44129 19.6839 8.87868 19.1213C8.31607 18.5587 8 17.7956 8 17V16" stroke="#323748" stroke-width="1.6" stroke-linecap="round" stroke-linejoin="round"/>
</svg>
