<svg width="40" height="40" viewBox="0 0 40 40" fill="none" xmlns="http://www.w3.org/2000/svg">
<g clip-path="url(#clip0_506_25936)">
<path d="M8.71827 5.38116C18.2105 -2.73207 34.6324 2.99664 33.5406 17.2177L36.6619 22.6184C37.2154 23.576 36.5243 24.7736 35.4182 24.7736H34.9771C34.1838 24.7736 33.5406 25.4168 33.5406 26.2101V31.2378C33.5406 32.0311 32.8975 32.6743 32.1042 32.6743H24.9505C24.1571 32.6743 23.514 33.3174 23.514 34.1108V37.8743M7.02322 6.93256C1.22955 13.4726 2.58912 22.6894 8.80328 27.3174C9.19049 27.6058 9.43651 28.052 9.43651 28.5348V37.8743" stroke="url(#paint0_linear_506_25936)" stroke-width="1.60886" stroke-linecap="round"/>
<path d="M14.0618 34.4554V24.7304C14.0618 24.0243 13.4894 23.4519 12.7834 23.4519C12.0773 23.4519 11.5049 22.8795 11.5049 22.1735V18.7403M16.3889 38.2477V21.3547M18.6586 40.0002V30.5194C18.6586 28.9327 19.9448 27.6464 21.5315 27.6464H22.1636M21.1006 39.1096V33.0763C21.1006 31.4896 22.3869 30.2034 23.9735 30.2034H28.0819M24.9504 27.6464V24.6586C24.9504 23.0719 26.2366 21.7856 27.8233 21.7856H33.1957M11.6198 33.1338V27.3448C11.6198 26.7498 11.1375 26.2674 10.5425 26.2674C9.94745 26.2674 9.4651 25.7851 9.4651 25.1901V23.6243C9.4651 22.7675 8.77052 22.0729 7.9137 22.0729C7.05689 22.0729 6.3623 21.3783 6.3623 20.5215V15.3789" stroke="url(#paint1_linear_506_25936)" stroke-width="1.14918" stroke-linecap="round"/>
<circle cx="13.947" cy="34.0525" r="1.14918" fill="#87DB00"/>
<circle cx="11.5339" cy="18.7683" r="1.14918" fill="#87DB00"/>
<circle cx="21.9343" cy="27.3298" r="1.14918" fill="#87DB00"/>
<circle cx="21.9343" cy="20.7224" r="1.14918" fill="#87DB00"/>
<circle cx="21.9324" cy="23.5954" r="0.804429" fill="#87DB00"/>
<circle cx="28.5984" cy="18.7688" r="1.14918" transform="rotate(-90 28.5984 18.7688)" fill="#87DB00"/>
<circle cx="31.4724" cy="18.7688" r="0.804429" transform="rotate(-90 31.4724 18.7688)" fill="#87DB00"/>
<circle cx="24.9793" cy="27.3298" r="1.14918" fill="#87DB00"/>
<circle cx="30.2068" cy="30.2029" r="1.14918" fill="#87DB00"/>
</g>
<defs>
<linearGradient id="paint0_linear_506_25936" x1="20.0954" y1="1.66699" x2="20.0954" y2="39.7705" gradientUnits="userSpaceOnUse">
<stop stop-color="#1E9BD9"/>
<stop offset="1" stop-color="#1E9BD9"/>
</linearGradient>
<linearGradient id="paint1_linear_506_25936" x1="19.779" y1="15.3789" x2="19.779" y2="40.0002" gradientUnits="userSpaceOnUse">
<stop stop-color="#87DB00"/>
<stop offset="1" stop-color="white" stop-opacity="0"/>
</linearGradient>
<clipPath id="clip0_506_25936">
<rect width="40" height="40" fill="white"/>
</clipPath>
</defs>
</svg>
