<svg width="24" height="25" viewBox="0 0 24 25" fill="none" xmlns="http://www.w3.org/2000/svg">
<path d="M20 12.5001C20 10.6901 16.24 8.51508 11.993 8.50008C7.775 8.48508 4 10.6781 4 12.5001C4 14.3251 7.754 16.5061 11.997 16.5001C16.252 16.4941 20 14.3201 20 12.5001ZM12 18.5001C6.958 18.5071 2 15.8141 2 12.5001C2 9.18608 6.984 6.48308 12 6.50008C17.016 6.51708 22 9.18608 22 12.5001C22 15.8141 17.042 18.4931 12 18.5001ZM12 16.5001C10.9391 16.5001 9.92172 16.0787 9.17157 15.3285C8.42143 14.5784 8 13.5609 8 12.5001C8 11.4392 8.42143 10.4218 9.17157 9.67165C9.92172 8.92151 10.9391 8.50008 12 8.50008C13.0609 8.50008 14.0783 8.92151 14.8284 9.67165C15.5786 10.4218 16 11.4392 16 12.5001C16 13.5609 15.5786 14.5784 14.8284 15.3285C14.0783 16.0787 13.0609 16.5001 12 16.5001ZM12 14.5001C12.5304 14.5001 13.0391 14.2894 13.4142 13.9143C13.7893 13.5392 14 13.0305 14 12.5001C14 11.9696 13.7893 11.4609 13.4142 11.0859C13.0391 10.7108 12.5304 10.5001 12 10.5001C11.4696 10.5001 10.9609 10.7108 10.5858 11.0859C10.2107 11.4609 10 11.9696 10 12.5001C10 13.0305 10.2107 13.5392 10.5858 13.9143C10.9609 14.2894 11.4696 14.5001 12 14.5001Z" fill="#697077"/>
</svg>
