<svg width="24" height="24" viewBox="0 0 24 24" fill="none" xmlns="http://www.w3.org/2000/svg">
<path d="M12 12.0005C14.2131 12.0005 16.0071 10.2065 16.0071 7.99342C16.0071 5.78036 14.2131 3.98633 12 3.98633C9.78696 3.98633 7.99292 5.78036 7.99292 7.99342C7.99292 10.2065 9.78696 12.0005 12 12.0005Z" stroke="#323748" stroke-width="1.60284"/>
<path d="M16.007 12H16.2891C16.875 12.0002 17.4407 12.2143 17.8799 12.6021C18.3191 12.9899 18.6015 13.5248 18.6742 14.1061L18.9875 16.6098C19.0157 16.8353 18.9956 17.0643 18.9285 17.2814C18.8615 17.4986 18.749 17.699 18.5985 17.8694C18.4481 18.0398 18.2631 18.1762 18.0559 18.2697C17.8487 18.3631 17.624 18.4114 17.3967 18.4113H6.60319C6.37589 18.4114 6.15118 18.3631 5.94398 18.2697C5.73677 18.1762 5.55181 18.0398 5.40136 17.8694C5.25091 17.699 5.13842 17.4986 5.07136 17.2814C5.00429 17.0643 4.98419 16.8353 5.01237 16.6098L5.32492 14.1061C5.39761 13.5245 5.68029 12.9894 6.1198 12.6016C6.55931 12.2137 7.12537 11.9998 7.71155 12H7.99285" stroke="#323748" stroke-width="1.60284" stroke-linecap="round" stroke-linejoin="round"/>
</svg>
