<svg width="16" height="16" viewBox="0 0 16 16" fill="none" xmlns="http://www.w3.org/2000/svg">
<path d="M3.33325 10C2.80282 10 2.29411 9.78929 1.91904 9.41421C1.54397 9.03914 1.33325 8.53043 1.33325 8C1.33325 7.46957 1.54397 6.96086 1.91904 6.58579C2.29411 6.21071 2.80282 6 3.33325 6C3.86368 6 4.37239 6.21071 4.74747 6.58579C5.12254 6.96086 5.33325 7.46957 5.33325 8C5.33325 8.53043 5.12254 9.03914 4.74747 9.41421C4.37239 9.78929 3.86368 10 3.33325 10ZM12.6666 10C12.1362 10 11.6274 9.78929 11.2524 9.41421C10.8773 9.03914 10.6666 8.53043 10.6666 8C10.6666 7.46957 10.8773 6.96086 11.2524 6.58579C11.6274 6.21071 12.1362 6 12.6666 6C13.197 6 13.7057 6.21071 14.0808 6.58579C14.4559 6.96086 14.6666 7.46957 14.6666 8C14.6666 8.53043 14.4559 9.03914 14.0808 9.41421C13.7057 9.78929 13.197 10 12.6666 10ZM7.99992 10C7.46949 10 6.96078 9.78929 6.58571 9.41421C6.21063 9.03914 5.99992 8.53043 5.99992 8C5.99992 7.46957 6.21063 6.96086 6.58571 6.58579C6.96078 6.21071 7.46949 6 7.99992 6C8.53035 6 9.03906 6.21071 9.41413 6.58579C9.78921 6.96086 9.99992 7.46957 9.99992 8C9.99992 8.53043 9.78921 9.03914 9.41413 9.41421C9.03906 9.78929 8.53035 10 7.99992 10Z" fill="#697077"/>
</svg>
