<svg width="24" height="24" viewBox="0 0 24 24" fill="none" xmlns="http://www.w3.org/2000/svg">
<path d="M13.3999 11.3984V6.39844C13.3999 6.13322 13.2945 5.87887 13.107 5.69133C12.9195 5.50379 12.6651 5.39844 12.3999 5.39844C12.1347 5.39844 11.8803 5.50379 11.6928 5.69133C11.5053 5.87887 11.3999 6.13322 11.3999 6.39844V11.3984H6.3999C6.13469 11.3984 5.88033 11.5038 5.6928 11.6913C5.50526 11.8789 5.3999 12.1332 5.3999 12.3984C5.3999 12.6637 5.50526 12.918 5.6928 13.1055C5.88033 13.2931 6.13469 13.3984 6.3999 13.3984H11.3999V18.3984C11.3999 18.6637 11.5053 18.918 11.6928 19.1055C11.8803 19.2931 12.1347 19.3984 12.3999 19.3984C12.6651 19.3984 12.9195 19.2931 13.107 19.1055C13.2945 18.918 13.3999 18.6637 13.3999 18.3984V13.3984H18.3999C18.6651 13.3984 18.9195 13.2931 19.107 13.1055C19.2945 12.918 19.3999 12.6637 19.3999 12.3984C19.3999 12.1332 19.2945 11.8789 19.107 11.6913C18.9195 11.5038 18.6651 11.3984 18.3999 11.3984H13.3999Z" fill="white"/>
</svg>
