<svg width="19" height="19" viewBox="0 0 19 19" fill="none" xmlns="http://www.w3.org/2000/svg">
<path d="M8.5005 14.5005C9.28843 14.5005 10.0687 14.3453 10.7966 14.0438C11.5246 13.7423 12.186 13.3003 12.7431 12.7431C13.3003 12.186 13.7423 11.5246 14.0438 10.7966C14.3453 10.0687 14.5005 9.28843 14.5005 8.5005C14.5005 7.71257 14.3453 6.93236 14.0438 6.2044C13.7423 5.47645 13.3003 4.81501 12.7431 4.25786C12.186 3.70071 11.5246 3.25875 10.7966 2.95723C10.0687 2.6557 9.28843 2.5005 8.5005 2.5005C6.9092 2.5005 5.38308 3.13264 4.25786 4.25786C3.13264 5.38308 2.5005 6.9092 2.5005 8.5005C2.5005 10.0918 3.13264 11.6179 4.25786 12.7431C5.38308 13.8684 6.9092 14.5005 8.5005 14.5005ZM14.8205 13.4065L18.4005 16.9865C18.4959 17.0788 18.572 17.1892 18.6244 17.3113C18.6767 17.4333 18.7042 17.5645 18.7052 17.6973C18.7063 17.8301 18.6809 17.9618 18.6305 18.0846C18.5802 18.2075 18.5058 18.3191 18.4119 18.4129C18.3179 18.5067 18.2062 18.5809 18.0833 18.6311C17.9604 18.6813 17.8287 18.7065 17.6959 18.7052C17.5631 18.704 17.4319 18.6763 17.3099 18.6238C17.188 18.5713 17.0777 18.4951 16.9855 18.3995L13.4055 14.8195C11.798 16.0674 9.7753 16.6557 7.74926 16.4647C5.72322 16.2737 3.84611 15.3178 2.50005 13.7916C1.154 12.2653 0.440188 10.2834 0.503929 8.24943C0.56767 6.2154 1.40417 4.28213 2.84315 2.84315C4.28213 1.40417 6.2154 0.56767 8.24943 0.503929C10.2834 0.440188 12.2653 1.154 13.7916 2.50005C15.3178 3.84611 16.2737 5.72322 16.4647 7.74926C16.6557 9.7753 16.0674 11.798 14.8195 13.4055L14.8205 13.4065Z" fill="#697077"/>
</svg>
